# xmcd
#
# Track frame offsets:
#	150
#	24673
#	57187
#	70674
#	83357
#	116040
#	171067
#	208452
#	241801
#
# Disc length: 3428 seconds
#
# Revision: 1
# Processed by: cddbd v1.5.2PL0 Copyright (c) Steve Scherf et al.
# Submitted via: audiograbber 1.83.01
#
DISCID=720d6209
DTITLE=Grateful Dead - 72-10-02 Springfield Civic Centre Arena, Springfield MA
DYEAR=1900
DGENRE=
TTITLE0=Greatest Story Ever Told
TTITLE1=Truckin'
TTITLE2=Nobody's Fault But Mine Jam
TTITLE3=Drums
TTITLE4=Uncle John's Band Jam
TTITLE5=Morning Dew
TTITLE6=Sugar Magnolia
TTITLE7=Uncle John's Band
TTITLE8=Johnny B Goode
EXTD=
EXTT0=
EXTT1=
EXTT2=
EXTT3=
EXTT4=
EXTT5=
EXTT6=
EXTT7=
EXTT8=
PLAYORDER=
